<svg width="24" height="24" viewBox="0 0 24 24" fill="none" xmlns="http://www.w3.org/2000/svg">
<path fill-rule="evenodd" clip-rule="evenodd" d="M4.5 9.91149C4.5 13.1918 6.39673 16.009 9.09567 17.207V18.971C9.09567 20.6431 10.3827 22 11.9672 22C13.5883 22 14.9043 20.6118 14.9043 18.9024V17.207C17.6033 16.009 19.5 13.1918 19.5 9.91149C19.5 5.5452 16.1392 2 12 2C7.8608 2 4.5 5.5452 4.5 9.91149ZM9.84509 15.3291C10.5617 15.647 11.0272 16.3872 11.0272 17.207V18.971C11.0272 19.5184 11.4489 19.9625 11.9672 19.9625C12.5221 19.9625 12.9728 19.4878 12.9728 18.9024V17.207C12.9728 16.3872 13.4383 15.647 14.1549 15.3291C15.3392 14.8034 16.3158 13.858 16.9166 12.6698C13.6059 14.1852 10.3158 14.223 7.13004 12.7602C7.73412 13.9059 8.69098 14.8168 9.84509 15.3291ZM6.43252 10.0249L6.9835 10.3457C10.2005 12.2188 13.4765 12.2373 16.9434 10.3329L17.568 9.98979C17.5683 9.96373 17.5685 9.93763 17.5685 9.91149C17.5685 6.66988 15.073 4.03747 12 4.03747C8.92634 4.03747 6.4315 6.66988 6.4315 9.91149C6.4315 9.94937 6.43184 9.98716 6.43252 10.0249Z"/>
</svg>
